# Exported from Wings 3D 1.5.3
mtllib hex.mtl
o Cube19_extract26
#20 vertices, 36 faces
v 6.6613381e-16 6.2500000e-2 0.0000000e+0
v 6.6613381e-16 -6.2500000e-2 0.0000000e+0
v -0.95000000 -6.2500000e-2 -3.1293051e-18
v -0.95000000 6.2500000e-2 -3.1293051e-18
v -1.06250000 6.9388939e-18 -3.4694470e-18
v 0.50176132 -6.2500000e-2 -0.93137820
v 0.95000000 -6.2500000e-2 -3.1293051e-18
v 0.50176132 -6.2500000e-2 0.93137820
v -0.50176132 -6.2500000e-2 0.93137820
v -0.50176132 -6.2500000e-2 -0.93137820
v -0.50176132 6.2500000e-2 0.93137820
v -0.55781250 6.9388939e-18 1.03542138
v 0.50176132 6.2500000e-2 -0.93137820
v 0.55781250 6.9388939e-18 -1.03542138
v 0.95000000 6.2500000e-2 -3.1293051e-18
v 1.06250000 6.9388939e-18 -3.4694470e-18
v 0.50176132 6.2500000e-2 0.93137820
v 0.55781250 6.9388939e-18 1.03542138
v -0.50176132 6.2500000e-2 -0.93137820
v -0.55781250 6.9388939e-18 -1.03542138
vn 0.0000000e+0 1.00000000 0.0000000e+0
vn 0.0000000e+0 -1.00000000 0.0000000e+0
vn -0.24750470 -0.96888669 0.0000000e+0
vn -0.24750470 0.96888669 0.0000000e+0
vn -1.00000000 0.0000000e+0 0.0000000e+0
vn 0.12965698 -0.97162295 -0.19783304
vn 0.33809478 -0.94111207 0.0000000e+0
vn 0.12965698 -0.97162295 0.19783304
vn -0.16934606 -0.94980186 0.26305578
vn -0.16934606 -0.94980186 -0.26305578
vn -0.16934606 0.94980186 0.26305578
vn -0.54531415 0.0000000e+0 0.83823176
vn 0.12965698 0.97162295 -0.19783304
vn 0.54190512 3.1154646e-17 -0.84043967
vn 0.33809478 0.94111207 0.0000000e+0
vn 1.00000000 0.0000000e+0 0.0000000e+0
vn 0.12965698 0.97162295 0.19783304
vn 0.54190512 0.0000000e+0 0.84043967
vn -0.16934606 0.94980186 -0.26305578
vn -0.54531415 0.0000000e+0 -0.83823176
g Cube19_extract26_hex
usemtl hex
s 1
f 1//1 11//11 17//17
f 1//1 19//19 4//4
f 2//2 7//7 8//8
f 2//2 10//10 6//6
f 3//3 9//9 5//5
f 3//3 10//10 2//2
f 4//4 11//11 1//1
f 4//4 19//19 5//5
f 5//5 10//10 3//3
f 5//5 11//11 4//4
f 6//6 7//7 2//2
f 6//6 10//10 14//14
f 7//7 14//14 16//16
f 8//8 7//7 18//18
f 8//8 9//9 2//2
f 9//9 3//3 2//2
f 9//9 18//18 12//12
f 10//10 5//5 20//20
f 11//11 5//5 12//12
f 12//12 5//5 9//9
f 12//12 18//18 11//11
f 13//13 15//15 14//14
f 13//13 19//19 1//1
f 14//14 7//7 6//6
f 14//14 19//19 13//13
f 15//15 13//13 1//1
f 15//15 18//18 16//16
f 16//16 14//14 15//15
f 16//16 18//18 7//7
f 17//17 11//11 18//18
f 17//17 15//15 1//1
f 18//18 9//9 8//8
f 18//18 15//15 17//17
f 19//19 14//14 20//20
f 20//20 5//5 19//19
f 20//20 14//14 10//10
